<?xml version="1.0" ?><!DOCTYPE svg  PUBLIC '-//W3C//DTD SVG 1.1//EN'  'http://www.w3.org/Graphics/SVG/1.1/DTD/svg11.dtd'><svg enable-background="new 0 0 64 64" version="1.1" viewBox="0 0 64 64" xml:space="preserve" xmlns="http://www.w3.org/2000/svg" xmlns:xlink="http://www.w3.org/1999/xlink"><g id="Flag40"/><g id="Flag39"/><g id="Flag38"/><g id="Flag37"/><g id="Flag36"/><g id="Flag35"/><g id="Flag34"/><g id="Flag33"/><g id="Flag32"/><g id="Flag31"/><g id="Flag30"/><g id="Flag29"/><g id="Flag28"/><g id="Flag27"/><g id="Flag26"/><g id="Flag25"/><g id="Flag24"/><g id="Flag23"/><g id="Flag22"/><g id="Flag21"/><g id="Flag20"/><g id="Flag19"/><g id="Flag18"><g><polygon fill="#333333" points="62,18.67 62,45.33 39.78,32   "/><path d="M62,46.3301c-0.1777,0-0.3564-0.0474-0.5146-0.1426L39.2656,32.8574    c-0.3008-0.1807-0.4854-0.5063-0.4854-0.8574s0.1846-0.6768,0.4854-0.8574l22.2197-13.3301    c0.3086-0.186,0.6934-0.1909,1.0078-0.0127C62.8066,17.9771,63,18.3096,63,18.6699v26.6602c0,0.3604-0.1934,0.6929-0.5068,0.8701    C62.3398,46.2871,62.1699,46.3301,62,46.3301z M41.7236,32L61,43.564V20.436L41.7236,32z" fill="#414042"/></g><g><polygon fill="#00AD59" points="54.22,14 32,27.33 9.78,14   "/><path d="M32,28.3301c-0.1782,0-0.356-0.0474-0.5146-0.1426L9.2656,14.8574    c-0.3853-0.231-0.5688-0.6909-0.4492-1.1245C8.9365,13.2998,9.3306,13,9.7803,13h44.4395c0.4492,0,0.8438,0.2998,0.9639,0.7329    c0.1201,0.4336-0.0635,0.8936-0.4492,1.1245L32.5146,28.1875C32.356,28.2827,32.1782,28.3301,32,28.3301z M13.3911,15L32,26.1641    L50.6094,15H13.3911z" fill="#414042"/></g><g><polygon fill="#00AD59" points="54.22,50 9.78,50 32,36.67   "/><path d="M54.2393,51c-0.0049,0.001-0.0117,0.0005-0.0195,0H9.7803c-0.4497,0-0.8438-0.2998-0.9639-0.7329    c-0.1196-0.4336,0.064-0.8936,0.4492-1.1245l22.2197-13.3301c0.3174-0.1904,0.7119-0.1904,1.0293,0L54.625,49.0767    c0.3613,0.1509,0.6143,0.5073,0.6143,0.9233C55.2393,50.5522,54.792,51,54.2393,51z M13.3911,49h37.2183L32,37.8359L13.3911,49z" fill="#414042"/></g><g><polygon fill="#333333" points="24.22,32 2,45.33 2,18.67   "/><path d="M2,46.3301c-0.1699,0-0.3398-0.043-0.4927-0.1299C1.1938,46.0229,1,45.6904,1,45.3301V18.6699    c0-0.3604,0.1938-0.6929,0.5073-0.8701c0.3125-0.1777,0.6987-0.1738,1.0073,0.0127l22.2197,13.3301    c0.3013,0.1807,0.4854,0.5063,0.4854,0.8574s-0.1841,0.6768-0.4854,0.8574L2.5146,46.1875    C2.3564,46.2827,2.1782,46.3301,2,46.3301z M3,20.436V43.564L22.2759,32L3,20.436z" fill="#414042"/></g><g><path d="M62,51h-7.7803c-0.1816,0-0.3594-0.0493-0.5146-0.1426L32,37.8359L10.2949,50.8574    C10.1392,50.9507,9.9614,51,9.7803,51H2c-0.5522,0-1-0.4478-1-1v-4.6699c0-0.3511,0.1841-0.6768,0.4854-0.8574L22.2759,32    L1.4854,19.5273C1.1841,19.3467,1,19.021,1,18.6699V14c0-0.5522,0.4478-1,1-1h7.7803c0.1812,0,0.3589,0.0493,0.5146,0.1426    L32,26.1641l21.7051-13.0215C53.8604,13.0493,54.0381,13,54.2197,13H62c0.5527,0,1,0.4478,1,1v4.6699    c0,0.3511-0.1846,0.6768-0.4854,0.8574L41.7236,32l20.791,12.4727C62.8154,44.6533,63,44.979,63,45.3301V50    C63,50.5522,62.5527,51,62,51z M54.4971,49H61v-3.1035L39.2656,32.8574c-0.3008-0.1807-0.4854-0.5063-0.4854-0.8574    s0.1846-0.6768,0.4854-0.8574L61,18.1035V15h-6.5029L32.5146,28.1875c-0.3174,0.1904-0.7119,0.1904-1.0293,0L9.5034,15H3v3.1035    l21.7344,13.0391c0.3013,0.1807,0.4854,0.5063,0.4854,0.8574s-0.1841,0.6768-0.4854,0.8574L3,45.8965V49h6.5034l21.9819-13.1875    c0.3174-0.1904,0.7119-0.1904,1.0293,0L54.4971,49z" fill="#414042"/></g><g><polygon fill="#FFBF42" points="62,18.67 39.78,32 62,45.33 62,50 54.22,50 32,36.67 9.78,50 2,50 2,45.33 24.22,32 2,18.67 2,14     9.78,14 32,27.33 54.22,14 62,14   "/><path d="M62,51h-7.7803c-0.1816,0-0.3594-0.0493-0.5146-0.1426L32,37.8359L10.2949,50.8574    C10.1392,50.9507,9.9614,51,9.7803,51H2c-0.5522,0-1-0.4478-1-1v-4.6699c0-0.3511,0.1841-0.6768,0.4854-0.8574L22.2759,32    L1.4854,19.5273C1.1841,19.3467,1,19.021,1,18.6699V14c0-0.5522,0.4478-1,1-1h7.7803c0.1812,0,0.3589,0.0493,0.5146,0.1426    L32,26.1641l21.7051-13.0215C53.8604,13.0493,54.0381,13,54.2197,13H62c0.5527,0,1,0.4478,1,1v4.6699    c0,0.3511-0.1846,0.6768-0.4854,0.8574L41.7236,32l20.791,12.4727C62.8154,44.6533,63,44.979,63,45.3301V50    C63,50.5522,62.5527,51,62,51z M54.4971,49H61v-3.1035L39.2656,32.8574c-0.3008-0.1807-0.4854-0.5063-0.4854-0.8574    s0.1846-0.6768,0.4854-0.8574L61,18.1035V15h-6.5029L32.5146,28.1875c-0.3174,0.1904-0.7119,0.1904-1.0293,0L9.5034,15H3v3.1035    l21.7344,13.0391c0.3013,0.1807,0.4854,0.5063,0.4854,0.8574s-0.1841,0.6768-0.4854,0.8574L3,45.8965V49h6.5034l21.9819-13.1875    c0.3174-0.1904,0.7119-0.1904,1.0293,0L54.4971,49z" fill="#414042"/></g></g><g id="Flag17"/><g id="Flag16"/><g id="Flag15"/><g id="Flag14"/><g id="Flag13"/><g id="Flag12"/><g id="Flag11"/><g id="Flag10"/><g id="Flag09"/><g id="Flag08"/><g id="Flag07"/><g id="Flag06"/><g id="Flag05"/><g id="Flag04"/><g id="Flag03"/><g id="Flag02"/><g id="Flag01"/></svg>