<?xml version="1.0" ?><svg id="Layer_1" style="enable-background:new 0 0 512 512;" version="1.1" viewBox="0 0 512 512" xml:space="preserve" xmlns="http://www.w3.org/2000/svg" xmlns:xlink="http://www.w3.org/1999/xlink"><style type="text/css">
	.st0{fill:#2C3078;}
	.st1{fill:#F4C637;}
	.st2{fill:#010101;}
</style><g id="XMLID_1_"><rect class="st0" height="298.7" id="XMLID_5_" width="512" y="106.7"/><rect class="st1" height="298.7" id="XMLID_4_" width="170.7" x="170.7" y="106.7"/><path class="st2" d="M256,173.3c-5.6,15.1-11.2,30.9-23.3,42.9c3.8-1.3,10.3-2.4,14.5-2.2v63.6l-17.9,2.7   c-0.7-0.1-0.9-1.1-0.9-2.5c-1.7-19.7-6.4-36.3-11.8-53.5c-0.4-2.4-7.2-11.3-1.9-9.7c0.6,0.1,7.7,3,6.5,1.6   c-9.6-9.9-23.5-17-37.1-19.1c-1.2-0.3-1.9,0.3-0.8,1.7c18,27.7,33.1,60.4,32.9,99.2c7,0,24-4.1,31-4.1v44.9h17.5v-44.9   c7,0,24,4.1,31,4.1c-0.1-38.8,14.9-71.5,32.9-99.2c1.1-1.4,0.4-2-0.8-1.7c-13.6,2.1-27.5,9.2-37.1,19.1c-1.1,1.4,5.9-1.5,6.5-1.6   c5.2-1.6-1.6,7.4-1.9,9.7c-5.4,17.2-10,33.8-11.8,53.5c0,1.4-0.2,2.4-0.9,2.5l-17.9-2.7V214c4.2-0.1,10.8,1,14.5,2.2   C267.2,204.2,261.5,188.4,256,173.3" id="XMLID_3_"/></g></svg>