<?xml version="1.0" standalone="no"?>
<!DOCTYPE svg PUBLIC "-//W3C//DTD SVG 20010904//EN"
 "http://www.w3.org/TR/2001/REC-SVG-20010904/DTD/svg10.dtd">
<svg version="1.0" xmlns="http://www.w3.org/2000/svg"
 width="1280.000000pt" height="1280.000000pt" viewBox="0 0 1280.000000 1280.000000"
 preserveAspectRatio="xMidYMid meet">
<metadata>
Created by potrace 1.15, written by Peter Selinger 2001-2017
</metadata>
<g transform="translate(0.000000,1280.000000) scale(0.100000,-0.100000)"
fill="#009688" stroke="none">
<path d="M4134 11301 c-29 -5 -56 -11 -60 -14 -5 -2 -36 -8 -69 -11 -122 -14
-248 -48 -430 -119 -186 -71 -260 -108 -455 -228 -137 -84 -378 -281 -387
-317 -7 -30 12 -72 32 -72 9 0 26 -6 38 -14 40 -25 331 -118 425 -136 30 -5
58 -13 65 -17 6 -3 27 -10 46 -14 114 -23 150 -31 216 -49 22 -6 60 -15 85
-20 25 -5 54 -11 65 -14 11 -3 47 -12 80 -20 56 -14 197 -59 275 -89 197 -75
320 -189 485 -447 121 -190 154 -225 267 -288 130 -72 212 -92 389 -92 149 0
226 9 289 34 19 7 56 18 82 25 61 14 162 61 267 125 80 48 220 174 270 241 12
17 20 24 16 18 -9 -18 3 -16 22 2 8 8 19 13 23 10 13 -8 9 -273 -5 -400 -7
-60 -20 -130 -29 -155 -8 -25 -16 -53 -16 -63 0 -10 -6 -20 -12 -22 -13 -5
-149 -22 -248 -31 -54 -6 -204 19 -315 51 -53 15 -174 44 -214 52 -14 2 -56
13 -95 23 -39 11 -93 22 -121 26 -27 3 -52 7 -55 9 -4 2 -74 9 -156 15 -122 9
-174 8 -289 -4 -177 -20 -170 -18 -311 -67 -124 -42 -384 -166 -420 -200 -11
-10 -25 -19 -30 -19 -9 0 -97 -56 -168 -108 -17 -12 -49 -34 -71 -49 -22 -14
-93 -69 -159 -122 -65 -53 -130 -105 -145 -116 -223 -166 -528 -473 -666 -670
-22 -31 -54 -75 -72 -98 -104 -138 -252 -407 -373 -682 -80 -181 -206 -593
-225 -735 -2 -14 -8 -45 -13 -70 -9 -40 -26 -157 -37 -265 -3 -22 -9 -62 -15
-90 -6 -27 -13 -185 -16 -350 -4 -241 -2 -322 11 -410 22 -155 22 -158 30
-238 4 -40 13 -103 21 -142 8 -38 17 -86 20 -105 3 -19 11 -55 19 -80 7 -25
17 -58 21 -75 4 -16 8 -32 9 -35 0 -3 4 -22 9 -44 4 -21 11 -46 16 -55 5 -9
20 -50 33 -91 51 -156 102 -287 168 -428 16 -35 29 -65 29 -67 0 -16 211 -423
241 -467 11 -14 19 -29 19 -32 0 -6 119 -209 171 -291 50 -79 170 -263 187
-285 10 -14 57 -80 103 -147 207 -302 338 -459 495 -596 50 -42 110 -92 135
-110 26 -17 70 -50 99 -72 160 -119 530 -321 845 -461 17 -7 50 -22 75 -33 25
-11 61 -24 80 -27 19 -4 52 -15 73 -26 21 -10 57 -23 80 -28 23 -5 60 -13 82
-19 22 -6 56 -14 75 -17 19 -3 60 -11 90 -19 100 -24 165 -31 460 -44 320 -15
773 -15 935 1 146 14 576 17 1115 8 162 -3 306 -2 320 1 14 4 43 10 65 14 22
4 61 13 86 21 25 8 54 17 65 19 85 20 374 135 454 182 14 8 43 23 66 33 53 25
140 78 185 113 20 15 41 27 47 27 5 0 45 26 89 58 43 33 97 72 120 88 23 16
103 82 177 147 116 101 174 159 351 357 48 54 146 186 221 300 20 30 49 73 64
95 15 22 40 63 55 90 15 28 42 75 60 105 37 63 112 209 148 290 64 142 127
289 127 295 0 4 6 21 14 38 8 18 27 64 41 102 15 39 34 88 42 110 19 49 33 93
39 122 2 12 13 43 24 68 11 26 22 59 25 75 3 16 14 49 25 75 11 26 22 59 25
74 2 15 18 70 35 122 16 52 30 102 30 111 0 9 4 19 9 22 5 4 12 25 16 48 4 22
14 56 21 74 8 19 19 57 25 86 6 29 22 89 36 133 13 44 26 91 28 105 4 33 32
156 56 252 11 42 24 112 29 155 6 43 13 89 16 103 19 82 24 116 34 220 6 63
14 140 18 170 8 63 7 762 -1 830 -3 25 -10 91 -16 147 -6 56 -16 124 -22 150
-6 26 -12 57 -14 68 -14 88 -37 198 -45 217 -9 23 -49 184 -55 223 -2 11 -13
45 -25 75 -12 30 -24 63 -26 73 -8 43 -10 49 -116 317 -114 292 -267 538 -481
774 -34 38 -65 74 -69 81 -9 14 -205 194 -259 237 -19 15 -65 52 -104 83 -65
52 -302 213 -335 228 -8 4 -33 18 -55 31 -85 52 -412 208 -465 222 -14 3 -43
15 -66 25 -22 10 -52 20 -65 23 -13 2 -31 7 -39 10 -16 6 -135 33 -185 42 -16
3 -46 9 -66 15 -78 20 -302 29 -699 29 -465 0 -621 -6 -696 -26 -28 -8 -60
-16 -72 -19 -11 -2 -34 -11 -51 -19 -16 -9 -35 -16 -42 -16 -7 0 -33 -17 -58
-37 -25 -21 -52 -39 -61 -39 -8 -1 -23 -5 -33 -9 -18 -7 -18 -3 -13 51 26 282
40 610 41 949 0 275 -11 378 -54 483 -55 138 -87 179 -176 228 -45 25 -60 27
-140 27 -78 -1 -99 -5 -155 -30 -144 -66 -214 -191 -214 -378 1 -49 6 -115 12
-145 7 -30 14 -71 17 -90 2 -19 14 -69 26 -110 36 -128 36 -130 -4 -130 -40 0
-130 38 -196 82 -52 35 -248 212 -270 243 -20 29 -351 354 -396 389 -52 41
-114 80 -182 114 -32 16 -67 33 -78 39 -73 39 -246 92 -330 100 -22 2 -53 9
-70 15 -37 13 -321 20 -391 9z"/>
</g>
</svg>
